<mxfile host="app.diagrams.net" agent="Mozilla/5.0 (Windows NT 10.0; Win64; x64) AppleWebKit/537.36 (KHTML, like Gecko) Chrome/126.0.0.0 Safari/537.36 OPR/112.0.0.0 (Edition std-1)" version="24.7.10">
  <diagram name="Página-1" id="BSL5QBLdS7DgaQ8sgR_s">
    <mxGraphModel grid="1" page="1" gridSize="10" guides="1" tooltips="1" connect="1" arrows="1" fold="1" pageScale="1" pageWidth="827" pageHeight="1169" math="0" shadow="0">
      <root>
        <mxCell id="0" />
        <mxCell id="1" parent="0" />
        <mxCell id="VlWkXpU5mb5C6SGUx2Bx-2" value="" style="rounded=0;whiteSpace=wrap;html=1;" vertex="1" parent="1">
          <mxGeometry x="190" y="170" width="416" height="320" as="geometry" />
        </mxCell>
        <mxCell id="VlWkXpU5mb5C6SGUx2Bx-4" style="edgeStyle=orthogonalEdgeStyle;rounded=0;orthogonalLoop=1;jettySize=auto;html=1;exitX=0.5;exitY=0.5;exitDx=0;exitDy=0;exitPerimeter=0;entryX=0;entryY=0.5;entryDx=0;entryDy=0;" edge="1" parent="1" source="VlWkXpU5mb5C6SGUx2Bx-1" target="VlWkXpU5mb5C6SGUx2Bx-3">
          <mxGeometry relative="1" as="geometry" />
        </mxCell>
        <mxCell id="VlWkXpU5mb5C6SGUx2Bx-1" value="Usuario Alumno" style="shape=umlActor;verticalLabelPosition=bottom;verticalAlign=top;html=1;outlineConnect=0;" vertex="1" parent="1">
          <mxGeometry x="110" y="310" width="30" height="60" as="geometry" />
        </mxCell>
        <mxCell id="VlWkXpU5mb5C6SGUx2Bx-7" style="edgeStyle=none;rounded=0;orthogonalLoop=1;jettySize=auto;html=1;exitX=1;exitY=0.5;exitDx=0;exitDy=0;entryX=0;entryY=0.5;entryDx=0;entryDy=0;" edge="1" parent="1" source="VlWkXpU5mb5C6SGUx2Bx-3" target="VlWkXpU5mb5C6SGUx2Bx-5">
          <mxGeometry relative="1" as="geometry" />
        </mxCell>
        <mxCell id="VlWkXpU5mb5C6SGUx2Bx-9" value="&amp;lt;&amp;lt;include&amp;gt;&amp;gt;" style="edgeLabel;html=1;align=center;verticalAlign=middle;resizable=0;points=[];" connectable="0" vertex="1" parent="VlWkXpU5mb5C6SGUx2Bx-7">
          <mxGeometry x="0.0127" y="-1" relative="1" as="geometry">
            <mxPoint as="offset" />
          </mxGeometry>
        </mxCell>
        <mxCell id="VlWkXpU5mb5C6SGUx2Bx-8" style="edgeStyle=none;rounded=0;orthogonalLoop=1;jettySize=auto;html=1;exitX=1;exitY=0.5;exitDx=0;exitDy=0;entryX=0;entryY=0.5;entryDx=0;entryDy=0;" edge="1" parent="1" source="VlWkXpU5mb5C6SGUx2Bx-3" target="VlWkXpU5mb5C6SGUx2Bx-6">
          <mxGeometry relative="1" as="geometry" />
        </mxCell>
        <mxCell id="VlWkXpU5mb5C6SGUx2Bx-10" value="&amp;lt;&amp;lt;include&amp;gt;&amp;gt;" style="edgeLabel;html=1;align=center;verticalAlign=middle;resizable=0;points=[];" connectable="0" vertex="1" parent="VlWkXpU5mb5C6SGUx2Bx-8">
          <mxGeometry x="-0.0671" y="-3" relative="1" as="geometry">
            <mxPoint as="offset" />
          </mxGeometry>
        </mxCell>
        <mxCell id="VlWkXpU5mb5C6SGUx2Bx-3" value="Verificar estado de aprobación de cancha" style="ellipse;whiteSpace=wrap;html=1;" vertex="1" parent="1">
          <mxGeometry x="206" y="300" width="120" height="80" as="geometry" />
        </mxCell>
        <mxCell id="VlWkXpU5mb5C6SGUx2Bx-5" value="Consultar disponibilidad" style="ellipse;whiteSpace=wrap;html=1;" vertex="1" parent="1">
          <mxGeometry x="440" y="230" width="120" height="80" as="geometry" />
        </mxCell>
        <mxCell id="VlWkXpU5mb5C6SGUx2Bx-6" value="Confirmar cumplimiento de normativas" style="ellipse;whiteSpace=wrap;html=1;" vertex="1" parent="1">
          <mxGeometry x="440" y="350" width="120" height="80" as="geometry" />
        </mxCell>
      </root>
    </mxGraphModel>
  </diagram>
</mxfile>
